<?xml version="1.0" standalone="no"?>
<!DOCTYPE svg PUBLIC "-//W3C//DTD SVG 20010904//EN"
 "http://www.w3.org/TR/2001/REC-SVG-20010904/DTD/svg10.dtd">
<svg version="1.0" xmlns="http://www.w3.org/2000/svg"
 width="512.000000pt" height="512.000000pt" viewBox="0 0 512.000000 512.000000"
 preserveAspectRatio="xMidYMid meet">

<g transform="translate(0.000000,512.000000) scale(0.100000,-0.100000)"
fill="#000000" stroke="none">
<path d="M4307 4664 c-200 -36 -396 -133 -512 -253 -23 -24 -48 -41 -62 -41
-21 0 -605 117 -802 161 -71 16 -99 19 -117 11 -12 -6 -70 -50 -128 -97 -101
-82 -106 -88 -106 -124 0 -25 7 -44 19 -55 11 -10 167 -88 348 -173 180 -85
331 -158 335 -161 4 -4 -82 -98 -190 -209 l-197 -202 -90 -3 -90 -3 -42 80
c-23 44 -42 85 -43 92 0 7 26 14 65 18 54 6 73 14 124 51 81 59 83 73 36 191
-47 114 -70 137 -132 128 -39 -6 -48 -2 -104 37 -43 30 -75 44 -107 48 -46 5
-47 6 -66 58 -16 44 -31 63 -94 115 l-75 62 49 3 c59 4 94 32 94 74 0 80 -37
93 -222 79 -386 -31 -739 -171 -1033 -411 -102 -83 -250 -242 -328 -350 -84
-118 -196 -342 -241 -481 -174 -537 -93 -1117 221 -1587 35 -52 62 -98 61
-101 -2 -4 -46 -72 -99 -151 -184 -276 -248 -428 -257 -606 -9 -202 61 -321
227 -385 79 -31 277 -38 426 -14 285 44 575 154 1005 381 l145 77 118 8 c600
41 1117 360 1439 887 92 153 180 376 214 548 16 78 16 85 0 109 -47 71 -135
42 -150 -50 -4 -22 -21 -88 -37 -146 l-31 -107 -68 72 c-37 39 -80 86 -96 103
-24 27 -40 34 -94 43 -107 16 -135 13 -172 -19 -24 -20 -48 -30 -87 -34 -51
-6 -58 -11 -145 -94 -50 -48 -112 -104 -138 -123 -26 -19 -51 -45 -57 -58 -6
-13 -11 -65 -11 -116 0 -81 4 -104 30 -167 16 -41 30 -75 30 -75 0 -4 61 -25
102 -35 92 -22 123 -92 83 -190 -12 -30 -25 -72 -29 -92 -6 -30 -16 -41 -64
-70 -244 -148 -477 -215 -775 -224 -243 -8 -374 10 -597 83 -153 49 -150 45
-106 132 l36 72 54 0 c45 0 62 6 104 35 35 23 67 36 104 41 29 4 95 26 148 51
52 24 130 53 175 64 97 25 85 18 188 107 78 67 88 79 116 150 17 42 31 88 31
102 0 17 -21 44 -76 95 -70 65 -75 72 -65 96 6 17 6 58 1 110 -7 73 -14 95
-55 169 -25 47 -47 88 -48 91 -1 4 37 39 85 78 122 100 129 144 34 205 -60 38
-107 100 -127 164 -7 24 -24 52 -37 63 -47 36 -71 27 -198 -81 -118 -100 -119
-101 -126 -73 -4 14 -34 54 -68 88 l-60 61 9 49 c10 54 2 87 -32 123 l-21 23
27 112 c33 134 33 137 6 189 -20 40 -21 42 -3 109 14 52 22 69 35 69 31 0 66
21 78 47 18 39 13 227 -9 347 -11 60 -20 112 -20 116 0 4 -23 37 -51 74 -28
38 -47 71 -43 76 5 4 31 13 59 19 40 10 50 10 54 -1 2 -7 16 -25 30 -39 21
-21 40 -28 94 -33 59 -7 73 -12 121 -52 41 -34 59 -58 72 -95 12 -34 35 -66
67 -96 43 -40 52 -44 90 -42 36 3 52 -3 115 -46 41 -27 85 -49 100 -50 14 0
27 -5 29 -11 5 -14 -29 -24 -87 -24 -25 0 -56 -6 -69 -13 -25 -12 -101 -139
-101 -167 0 -8 20 -49 45 -90 25 -41 45 -78 45 -81 0 -4 -34 -9 -75 -11 l-75
-3 -80 -80 c-69 -69 -80 -84 -80 -114 0 -19 7 -42 16 -52 8 -9 80 -41 160 -70
118 -43 143 -55 138 -68 -18 -39 -15 -99 5 -139 32 -62 74 -87 149 -87 34 0
62 -2 62 -5 0 -27 53 -300 62 -317 6 -12 24 -27 41 -32 37 -13 65 -1 162 72
l69 52 57 238 c31 131 60 249 63 262 5 19 64 63 231 175 l224 150 10 -38 c111
-427 171 -667 171 -679 0 -8 14 -28 30 -45 25 -25 36 -29 61 -24 29 5 210 148
238 187 10 15 13 77 12 301 -1 156 -4 365 -7 465 l-7 181 49 34 c155 106 286
279 360 474 65 174 -3 311 -166 337 -19 3 -70 -1 -113 -9z m133 -169 c43 -52
-74 -288 -207 -417 -54 -52 -253 -194 -658 -470 -261 -177 -786 -516 -866
-559 -23 -12 -23 -11 -9 7 43 55 238 271 392 434 211 223 805 806 880 863 143
108 425 194 468 142z m-1209 -190 c199 -41 364 -76 365 -78 2 -2 -37 -43 -86
-92 l-89 -88 -305 143 -305 144 21 23 c12 13 25 23 29 23 4 0 171 -34 370 -75z
m-1445 -138 c23 -33 34 -63 47 -138 22 -121 23 -199 3 -199 -8 0 -26 -10 -41
-22 -20 -18 -33 -52 -61 -153 l-35 -130 25 -51 24 -51 -29 -114 c-15 -63 -29
-123 -29 -135 0 -12 13 -39 30 -62 28 -39 29 -45 23 -107 l-6 -66 70 -72 c51
-53 73 -84 82 -117 l13 -44 -93 -85 c-159 -143 -569 -560 -674 -685 -55 -66
-112 -133 -126 -149 l-25 -30 -48 74 c-160 249 -251 539 -263 844 -15 371 74
688 278 995 118 179 466 493 524 475 58 -19 75 -17 126 16 44 28 89 43 144 47
6 1 24 -18 41 -41z m2243 -888 l1 -316 -25 -23 c-19 -18 -26 -20 -29 -9 -3 8
-41 155 -85 328 l-81 314 22 16 c13 9 59 41 103 71 l80 55 6 -60 c4 -33 7
-202 8 -376z m-1326 26 c-20 -25 -41 -45 -45 -45 -8 0 -141 47 -178 64 -22 9
-16 11 50 16 41 4 106 7 143 8 l68 2 -38 -45z m288 -397 c-18 -73 -35 -140
-38 -148 -6 -15 -42 153 -42 200 -1 20 10 32 51 57 29 17 55 30 57 28 2 -2
-11 -64 -28 -137z m-711 -117 c0 -5 20 -31 45 -59 l44 -49 -42 -34 c-23 -19
-123 -106 -222 -193 -567 -503 -993 -997 -1175 -1362 -52 -103 -55 -113 -55
-184 0 -57 6 -85 22 -115 40 -76 117 -130 219 -157 l49 -12 -40 -8 c-22 -4
-90 -7 -152 -7 -163 -1 -250 37 -282 122 -16 41 -13 160 5 231 22 87 99 243
184 371 283 428 671 852 1190 1301 62 54 130 114 150 131 34 32 60 42 60 24z
m29 -470 c38 -71 42 -139 11 -178 -11 -15 -20 -41 -20 -61 0 -29 8 -43 48 -79
26 -25 62 -56 80 -70 17 -14 32 -35 32 -46 0 -13 -26 -45 -67 -83 -60 -56 -76
-65 -138 -80 -38 -10 -113 -36 -165 -60 -52 -23 -125 -48 -162 -54 -46 -8 -81
-22 -108 -41 -34 -25 -49 -29 -106 -29 -36 0 -74 -4 -84 -10 -10 -5 -38 -51
-63 -102 -69 -141 -58 -136 -154 -73 -46 30 -83 58 -83 62 0 13 193 238 338
396 161 174 577 567 601 567 4 0 22 -27 40 -59z m1356 -158 c77 -77 105 -126
105 -184 0 -36 -11 -59 -74 -154 -41 -61 -114 -153 -163 -205 l-90 -94 -12 64
c-6 36 -16 77 -22 91 -10 25 -119 129 -136 129 -4 0 -24 5 -44 10 -44 12 -59
42 -59 115 0 54 0 54 58 98 31 25 79 68 106 96 44 44 55 51 104 57 35 4 63 15
80 30 40 35 71 23 147 -53z m-2361 -927 c176 -120 371 -204 626 -267 l45 -11
-60 -24 c-110 -45 -309 -105 -435 -130 -264 -54 -450 -8 -450 110 0 44 178
365 202 366 4 0 37 -20 72 -44z"/>
</g>
</svg>
